<?xml version="1.0" encoding="utf-8"?>
<!-- Generator: Adobe Illustrator 24.0.2, SVG Export Plug-In . SVG Version: 6.00 Build 0)  -->
<svg version="1.1" id="Capa_1" xmlns="http://www.w3.org/2000/svg" xmlns:xlink="http://www.w3.org/1999/xlink" x="0px" y="0px"
	 viewBox="0 0 1250 900" style="enable-background:new 0 0 1250 900;" xml:space="preserve">
<style type="text/css">
	.st0{fill:#102332;}
	.st1{fill:#202020;}
	.st2{fill:#1F90CF;}
	.st3{fill:#D4E2E9;}
	.st4{fill:#CFE1E9;}
	.st5{fill:#FEFEFE;}
	.st6{fill:#E2E5E6;}
	.st7{fill:#112432;}
	.st8{fill:#112332;}
	.st9{fill:#102332;stroke:#102332;stroke-width:1.8121;stroke-miterlimit:10;}
	.st10{fill:#102332;stroke:#102332;stroke-width:1.7162;stroke-miterlimit:10;}
	.st11{fill:#102332;stroke:#102332;stroke-width:1.7556;stroke-miterlimit:10;}
</style>
<g>
	<path class="st0" d="M408.17,386.66c-15.84-60.13-8.94-115.94,31.74-165.24c3.25-3.94,5.85-8.77,11.76-10.72
		c3.55,7.37,7.07,14.69,12.15,25.24c1.71-53.89,38.52-70.98,78.71-81.54c72.49-19.04,143.8-13.51,212.57,17.52
		c0.06,4.89-3.04,3.9-5.98,3.21c-37.35-13.21-75.31-22.77-115.48-19.2c-8.19,0.73-16.26,1.74-23.95,5.2
		c21.41,0.77,42.77,0.25,64.03,3.07c40.21,5.34,77.51,18.23,109.52,43.47c52.4,41.32,68.9,96.56,60.35,160.9
		c-0.69,5.18-1.37,10.36-2.05,15.53c-4.02,9.31-12.42,6.02-19.4,6.61c-5.77,0.49-11.14-1.98-16.76-2.65
		c-8.4-1.58-11.32-7.52-11.67-15.16c-1.4-30.94-19.12-46.75-54.03-47.56c-12.66-0.3-25.39-0.78-40.86,3.38
		c16.47,3,30.04,5.68,44.15,4.59c3.33-0.26,8.26-1.42,9.09,2.66c0.92,4.53-3.82,6.33-7.61,7.56c-22.54,7.3-45.59,12.84-69.13,14.98
		c-64.62,5.88-125.72-3.62-179.14-43.85c-2.44-1.84-5.01-3.53-7.43-5.39c-6.43-4.97-10.13-3.45-11.66,4.5
		c-2.98,15.45-5.69,30.88-5.24,46.75c0.19,6.81,1.5,14.1-3.58,20.11c-13.42,5.42-27.62,7.78-41.78,9.85
		C420.34,391.41,413.25,392.66,408.17,386.66z"/>
	<path class="st1" d="M950.63,441.02c-31.59-16.85-39.42-45.29-42.82-75.54c-6.42-57.11-2.38-114.5-3.43-171.75
		c-0.37-20.11-0.32-40.29-4.07-60.11c-5.62-29.76-18-40.64-48.56-39.81c-13.83,0.38-17.06-3.89-15.9-16.57
		c1.11-12.15,0.52-24.48,0.13-36.72c-0.21-6.49,1.28-9.86,8.62-9.15c11.76,1.12,23.77,0.66,35.33,2.73
		c34.2,6.09,52.16,25.15,59.51,61.07c5.2,25.38,7.33,51.03,7.44,76.87c0.17,43.74-0.07,87.49,0.3,131.23
		c0.19,22.28,1.33,44.59,7.35,66.24c8.17,29.37,22.53,41,52.67,40.72c10.78-0.1,13.32,3.33,12.73,13.27
		c-0.8,13.51-0.4,27.11-0.12,40.67c0.11,5.62-1.8,7.69-7.54,7.65c-6.52-0.05-13.09,0.67-19.56,1.57
		c-20.24,2.81-31.72,15.58-37.11,34.22c-7.1,24.56-8.19,49.9-8.56,75.3c-0.81,55.97,2.23,112-2.39,167.89
		c-1.11,13.44-3.09,27-6.46,40.04c-9.57,36.96-29.32,53.18-68.56,57.94c-33.54,4.07-33.6,4.07-33.51-29.23
		c0.03-10.02-2.97-22.28,1.69-29.44c4.57-7.02,17.85-2.08,27.24-3.59c18.49-2.96,28.01-10.76,33.08-28.8
		c5.87-20.89,5.77-42.42,6.06-63.78c0.63-46.8,0.18-93.61,0.76-140.41c0.27-21.41,2.22-42.74,7.86-63.6
		C918.53,468.76,928.86,451.27,950.63,441.02z"/>
	<path class="st1" d="M296.44,441.12c31.77,16.78,38.95,45.71,42.94,76.37c4.13,31.78,3.04,63.73,3.31,95.64
		c0.34,39.79-1.35,79.61,1.91,119.34c0.43,5.21,1.01,10.44,2.01,15.56c5.89,30.12,17.72,41,48.16,40.27
		c14.23-0.34,17.73,4.13,16.44,17.25c-1.15,11.7-0.59,23.61-0.11,35.4c0.29,7.03-1.35,10.48-9.22,9.7
		c-10.89-1.08-21.97-0.61-32.75-2.23c-34.95-5.26-53.66-24.44-61.61-62c-5.27-24.91-7.2-50.17-7.32-75.56
		c-0.21-43.3,0.06-86.6-0.28-129.9c-0.18-23.16-1.17-46.36-7.58-68.82c-8.34-29.24-22.73-40.48-52.95-40.35
		c-9.48,0.04-13.27-1.76-12.5-12.08c1.01-13.48,0.6-27.11,0.11-40.65c-0.26-7.06,2.33-8.59,9.04-8.84
		c39.1-1.47,52.85-13.58,59.26-52.2c3.44-20.72,4.61-41.65,4.82-62.69c0.53-54.65-2.27-109.36,2.28-163.93
		c1.12-13.44,3.01-27.02,6.44-40.03c10.18-38.53,32.67-55.87,73.71-58.35c28.42-1.72,28.47-1.72,28.39,26.74
		c-0.03,10.89,3.37,24.24-1.69,31.96c-4.86,7.42-19.41,2.11-29.58,4.16c-15.58,3.14-25.9,11.13-30.36,26.92
		c-6.04,21.36-6.12,43.25-6.43,65.03c-0.68,46.79-0.23,93.59-0.74,140.39c-0.24,21.87-2.37,43.64-8.12,64.88
		C328.41,413.78,317.92,430.81,296.44,441.12z"/>
	<path class="st2" d="M844.39,392.8c6.58,9.62,3.25,20.35,2.68,30.48c-0.4,7.24-7.68,5.57-12.65,5.72
		c-21.74,0.67-21.67,0.62-27.11,22.34c-1.59,6.34-3.49,12.64-5.64,18.81c-18.42,52.87-88.24,70.77-130.76,33.49
		c-12.89-11.3-19.95-26.31-25.9-41.94c-2.95-7.74-5.65-15.59-8.83-23.24c-2.37-5.68-6.66-8.79-13.23-8.85
		c-6.64-0.06-10.84,3.11-13.17,8.85c-4.41,10.91-8.19,22.08-12.85,32.89c-20.87,48.46-80.39,67.09-125.78,39.6
		c-12.81-7.75-19.08-20.27-23.91-33.43c-4.35-11.85-7.37-24.19-10.87-36.35c-2.45-8.51-6.8-13.19-16.86-12.45
		c-6.84,0.5-17.48,4.16-20.03-4.32c-3.05-10.11-5.99-22.14,3.08-31.96c21.15-3,42.46-4.89,63.25-10.24
		c3.74-0.96,7.43-2.11,11.19-3.02c31.02-5.77,61.99-4.31,92.78,1.36c37.97,7,75.71,7.04,113.61-0.61
		c38.05-7.68,75.82-4.76,113.22,4.82c9.7,4.05,19.83,5.33,30.3,5.26C832.81,389.97,839.11,388.49,844.39,392.8z"/>
	<path class="st3" d="M476.78,382.48c-24.47,5.32-48.61,13.14-74.22,9.95c1.87-1.92,3.74-3.84,5.61-5.76
		c20.75,3.5,39.87-6.1,60.01-7.44C471.6,378.85,474.76,379.16,476.78,382.48z"/>
	<path class="st4" d="M844.39,392.8c-16.04-0.26-32.37,2.19-47.62-5.23c1.98-3.22,6.01-0.32,8.26-2.74
		c12.19,0.86,24.46,6.05,36.5-0.71C842.48,387.01,843.44,389.9,844.39,392.8z"/>
	<path class="st0" d="M749.12,175.14c2.05-0.97,4.93-0.38,5.98-3.21c9.66,2.78,18.1,7.74,24.84,16.41
		C769.67,183.94,759.4,179.54,749.12,175.14z"/>
	<path class="st5" d="M805.03,384.82c-2.01,3.13-5.49,1.87-8.26,2.74c-48.76-11-97.3-7.9-146.05,0.94
		c-21.17,3.84-42.93,2.29-64.11-1.54c-36.46-6.59-72.98-9-109.83-4.49c-2.92-0.93-6.56,0.01-8.59-3.25
		c-0.44-27.42-0.04-54.73,10.26-82.42c42.26,34.99,89.22,56.48,143.62,59.37c44.42,2.36,98.98-5.86,129.16-19.71
		c-21.89,0.33-42.14,0.94-61.62-7.54c19.23-11.03,70.87-11.35,89.31,3.42c13.1,10.49,18.12,24.35,18.03,40.34
		C796.9,379.09,797.73,383.8,805.03,384.82z"/>
	<path class="st6" d="M526.51,313.57c21.82,9.54,44.27,17.34,67.27,23.48c23.05,6.15,46.76,7.84,70.35,9.71
		c-50.36,6.36-96.98-5.46-141.04-29.59C522.41,314.23,523.35,312.85,526.51,313.57z"/>
	<path class="st6" d="M526.51,313.57c-1.14,1.2-2.28,2.4-3.42,3.6c-5.13-2.86-10.27-5.72-15.4-8.58c-0.53-2.56,0.25-3.85,3.07-3.19
		C516.01,308.12,521.26,310.84,526.51,313.57z"/>
	<path class="st6" d="M510.77,305.39c-1.02,1.06-2.05,2.13-3.07,3.19c-4.05-2.33-8.16-4.58-12.14-7.04c-1.78-1.1-3.29-2.61-7.3-5.86
		C498.31,298.07,504.74,301.23,510.77,305.39z"/>
	<path class="st5" d="M725.34,391.51c17.11,0.35,34.21,1.13,50.56,6.71c16.76,5.72,22.17,13.66,21.98,31.37
		c-0.2,18.15-4.33,35.63-11.53,52.14c-10.75,24.68-36.4,35.59-70.03,30.78c-36.21-5.18-70.66-46.4-69.14-83.03
		c0.49-11.87,6.77-20.23,17.04-26.15C683.28,392.36,704.22,391.62,725.34,391.51z"/>
	<path class="st5" d="M517.6,513.12c-40.06,0.56-57.39-15.1-66.88-60.44c-8.52-40.67-1.01-52.7,40.2-58.81
		c28.21-4.19,56.81-5.35,84.1,6.17c20.36,8.59,26.7,21.07,22.17,42.75C588.36,485,557.17,512.56,517.6,513.12z"/>
	<path class="st7" d="M749.86,451.8c-0.28,13.42-10.78,25.22-24.01,26.99c-13.33,1.78-26.4-6.82-30.16-19.85
		c-3.67-12.71,2.16-26.7,13.78-32.08c4.44-2.06,9.5-5.66,11.21,3.81c1.2,6.69,6.88,9.14,14,9.05c4.12-0.05,6.35-8.04,10.88-2.67
		C748.96,441.08,750.21,446.35,749.86,451.8z"/>
	<path class="st8" d="M496.37,453.26c-0.19-12.61,4.71-20.57,13.61-25.75c4.97-2.9,10.31-6.64,12.82,4.01
		c1.8,7.63,9.56,11.29,16.71,6.25c7.76-5.46,8.85-0.05,10.53,4.77c4.07,11.69,0.47,21.64-8.36,29.59
		c-8.17,7.36-17.95,9.11-28.1,4.65C502.68,471.98,496.39,463.62,496.37,453.26z"/>
</g>
<g>
	<g>
		<path class="st9" d="M556.5,555.65l-18.89,36.11l18.89,36.11h-15.3l-15.46-32.09h-4.68v32.09h-14.52v-72.23h14.52v32.09h4.68
			l15.46-32.09H556.5z"/>
		<path class="st9" d="M612.09,603.11h-34.66c0.31,11.35,2.97,17.13,10.46,17.13c5.47,0,8.59-3.09,9.68-9.29l14.21,1.14
			c-2.65,10.94-10.62,16.51-23.89,16.51c-17.49,0-24.98-10.01-24.98-27.45c0-17.64,7.5-27.55,24.98-27.55
			C609.12,573.6,614.74,587.84,612.09,603.11z M598.03,595.37c1.09-10.73-2.97-13.83-10.15-13.83c-6.71,0-9.52,4.44-10.3,13.83
			H598.03z"/>
		<path class="st9" d="M670.95,574.32l-16.86,53.55h-18.11l-16.4-53.55h14.68l10.93,43.65h0.16l10.93-43.65H670.95z"/>
		<path class="st9" d="M685.91,553.07h15.88v10.5h-15.88V553.07z M685.91,574.47h15.88v53.4h-15.88V574.47z"/>
		<path class="st9" d="M754.22,627.87v-34.46c0-7.84-1.25-11.14-7.49-11.14c-6.56,0-11.71,5.57-11.71,15.17v30.44H720.5v-53.55
			h13.27l1.25,8.87c2.19-5.78,7.81-9.6,16.39-9.6c13.74,0,17.33,6.19,17.33,18.47v35.8H754.22z"/>
	</g>
</g>
<g>
	<g>
		<path class="st10" d="M522.79,647.72c20.56,0,24.91,12.47,24.91,34.92c0,22.55-4.49,34.92-24.91,34.92h-20.56v-69.84H522.79z
			 M522.79,709.08c8.4,0,11.44-7.78,11.44-26.44s-3.04-26.44-11.44-26.44h-7.1v52.88H522.79z"/>
		<path class="st10" d="M609.68,710.28l-0.43,6.49c-2.46,0.9-4.78,1.5-7.82,1.5c-7.1,0-10.72-2.2-12.17-5.89
			c-2.17,2.89-6.95,5.89-14.05,5.89c-12.6,0-19.41-6.29-19.41-14.87c0-9.38,8.54-16.36,26.07-16.36c2.03,0,4.49,0.1,6.66,0.4v-1.5
			c0-10.68-2.03-13.17-8.69-13.17c-5.21,0-9.12,3.19-9.12,9.48l-12.31-1.1c0.43-9.98,9.12-16.06,21.43-16.06
			c16.22,0,22.16,6.39,22.16,21.05v20.85c0,2.09,0.87,3.49,3.04,3.69C606.21,710.88,607.94,710.78,609.68,710.28z M588.54,703.29
			v-8.48c-1.88-0.3-4.2-0.6-5.94-0.4c-8.25,0.1-13.32,4.29-13.32,8.58c0,4.69,3.19,7.58,9.7,7.58
			C583.76,710.58,588.1,707.28,588.54,703.29z"/>
		<path class="st10" d="M662.1,665.78l-15.64,51.78h-16.8l-15.21-51.78h13.61l10.14,42.21h0.15l10.14-42.21H662.1z"/>
		<path class="st11" d="M676.51,645.22h15.42v10.15h-15.42V645.22z M676.51,665.92h15.42v51.64h-15.42V665.92z"/>
		<path class="st10" d="M723.24,706.98c0,2.09,0.87,3.49,3.04,3.69c1.16,0.2,2.9,0.1,4.63-0.4l-0.29,6.49
			c-2.61,0.9-4.92,1.5-7.96,1.5c-9.7,0-12.89-4.19-12.89-10.28v-65.25h13.47V706.98z"/>
		<path class="st10" d="M791.31,710.28l-0.43,6.49c-2.46,0.9-4.78,1.5-7.82,1.5c-7.1,0-10.72-2.2-12.17-5.89
			c-2.17,2.89-6.95,5.89-14.05,5.89c-12.6,0-19.41-6.29-19.41-14.87c0-9.38,8.54-16.36,26.07-16.36c2.03,0,4.49,0.1,6.66,0.4v-1.5
			c0-10.68-2.03-13.17-8.69-13.17c-5.21,0-9.12,3.19-9.12,9.48l-12.31-1.1c0.43-9.98,9.12-16.06,21.43-16.06
			c16.22,0,22.16,6.39,22.16,21.05v20.85c0,2.09,0.87,3.49,3.04,3.69C787.83,710.88,789.57,710.78,791.31,710.28z M770.16,703.29
			v-8.48c-1.88-0.3-4.2-0.6-5.94-0.4c-8.25,0.1-13.32,4.29-13.32,8.58c0,4.69,3.19,7.58,9.7,7.58
			C765.38,710.58,769.73,707.28,770.16,703.29z"/>
	</g>
</g>
</svg>
